# xmcd CD database file
#
# Track frame offsets:
#	150
#	23855
#	63272
#	101096
#	136983
#	175956
#	210725
#	236478
#
# Disc length: 3715 seconds
#
# Revision: 0
# Processed by: cddbd v1.5.2PL0 Copyright (c) Steve Scherf et al.
# Submitted via: CDex 1.51
#
DISCID=6b0e8108
DTITLE=Sampler - Jazz Tales [CD 3)
DYEAR=2007
DGENRE=Jazz
TTITLE0=Steve Grossman - Naima (for John Coltrane)
TTITLE1=Cedar Walton - Fantasy in D (for Art Blakey)
TTITLE2=Cedar Walton - Relaxing at Camarillo (for Charlie Parker)
TTITLE3=Sphere - Scratch (for Stan Getz)
TTITLE4=Sphere - Well, You Needn't (for Thelonious Monk)
TTITLE5=Mike Melillo - Un poco loco (for Bud Powell)
TTITLE6=Dave Liebman - Milestones (for Miles Davis)
TTITLE7=Dave Liebman - I'm a Fool to Want You (for Billie Holiday)
EXTD=YEAR: 2007
EXTT0=
EXTT1=
EXTT2=
EXTT3=
EXTT4=
EXTT5=
EXTT6=
EXTT7=
PLAYORDER=
